<?xml version="1.0"?>
<svg xmlns="http://www.w3.org/2000/svg" xmlns:xlink="http://www.w3.org/1999/xlink" version="1.1" id="Layer_1" x="0px" y="0px" viewBox="0 0 512.005 512.005" style="enable-background:new 0 0 512.005 512.005;" xml:space="preserve" width="512px" height="512px"><g><g>
	<g>
		<path d="M349.059,173.978c-2.005-2.112-4.8-3.307-7.723-3.307H170.669c-2.923,0-5.717,1.195-7.723,3.307    c-4.48,4.693-109.611,115.861-109.611,178.027c0,88.235,90.923,160,202.667,160s202.667-71.765,202.667-160    C458.669,289.84,353.539,178.672,349.059,173.978z M256.003,490.672c-99.989,0-181.333-62.208-181.333-138.667    c0-43.008,69.824-126.976,100.608-160h161.451c30.784,33.003,100.608,116.949,100.608,160    C437.336,428.464,355.992,490.672,256.003,490.672z" data-original="#000000" class="active-path" data-old_color="#000000" fill="#407CA1"/>
	</g>
</g><g>
	<g>
		<path d="M341.336,128.005H170.669c-5.888,0-10.667,4.757-10.667,10.667c0,5.909,4.779,10.667,10.667,10.667h170.667    c5.888,0,10.667-4.779,10.667-10.667S347.224,128.005,341.336,128.005z" data-original="#000000" class="active-path" data-old_color="#000000" fill="#407CA1"/>
	</g>
</g><g>
	<g>
		<path d="M391.555,3.141c-3.221-3.264-8.213-4.075-12.309-2.005l-78.464,39.232L263.555,3.141c-4.16-4.16-10.923-4.16-15.083,0    l-37.227,37.227L132.781,1.136c-4.139-2.069-9.088-1.237-12.331,2.005s-4.053,8.192-1.984,12.309l42.667,85.333    c1.813,3.605,5.504,5.888,9.536,5.888h170.667c4.032,0,7.723-2.283,9.557-5.888L393.56,15.45    C395.608,11.354,394.797,6.384,391.555,3.141z M334.765,85.338H177.261l-25.408-50.816l56.725,28.352    c4.117,2.048,9.067,1.237,12.309-2.005l35.115-35.115l35.136,35.115c3.221,3.264,8.213,4.075,12.309,2.005l56.704-28.352    L334.765,85.338z" data-original="#000000" class="active-path" data-old_color="#000000" fill="#407CA1"/>
	</g>
</g><g>
	<g>
		<path d="M258.2,341.573l-2.325-0.448c-21.739-4.011-31.872-10.709-31.872-21.12c0-11.563,14.677-21.333,32.043-21.333    c16.704,0,31.061,9.067,32,20.181c0.469,5.888,6.037,10.283,11.52,9.728c5.867-0.491,10.219-5.675,9.728-11.541    c-1.92-22.635-24.811-39.701-53.248-39.701c-29.44,0-53.376,19.136-53.376,42.667c0,21.909,16.597,36.075,51.2,42.453l2.347,0.448    c21.675,3.989,31.787,10.688,31.787,21.099c0,11.563-14.677,21.333-32.043,21.333c-16.704,0-31.061-9.067-32-20.181    c-0.491-5.888-6.144-10.453-11.52-9.728c-5.867,0.491-10.219,5.653-9.728,11.52c1.92,22.656,24.811,39.723,53.248,39.723    c29.44,0,53.376-19.136,53.355-42.645C309.315,362.117,292.76,347.952,258.2,341.573z" data-original="#000000" class="active-path" data-old_color="#000000" fill="#407CA1"/>
	</g>
</g><g>
	<g>
		<path d="M256.003,256.005c-5.888,0-10.667,4.779-10.667,10.667v170.667c0,5.888,4.779,10.667,10.667,10.667    c5.888,0,10.667-4.757,10.667-10.667V266.672C266.669,260.784,261.891,256.005,256.003,256.005z" data-original="#000000" class="active-path" data-old_color="#000000" fill="#407CA1"/>
	</g>
</g></g> </svg>
