<?xml version="1.0"?>
<svg xmlns="http://www.w3.org/2000/svg" xmlns:xlink="http://www.w3.org/1999/xlink" version="1.1" id="Layer_1" x="0px" y="0px" viewBox="0 0 512 512" style="enable-background:new 0 0 512 512;" xml:space="preserve" width="512px" height="512px"><g><g>
	<g>
		<path d="M416,0H74.667C33.493,0,0,33.493,0,74.667V416c0,41.173,33.493,74.667,74.667,74.667h214.336    c4.757,0,8.917-3.136,10.24-7.701c1.323-4.565-0.533-9.451-4.565-11.989c-37.568-23.659-60.011-64.149-60.011-108.309    c0-70.592,57.408-128,128-128c44.16,0,84.651,22.443,108.309,60.011c2.539,4.032,7.424,5.867,11.989,4.565    c4.565-1.323,7.701-5.483,7.701-10.24V74.667C490.667,33.493,457.173,0,416,0z M469.333,258.261    c-27.776-28.544-65.877-44.928-106.667-44.928c-82.347,0-149.333,66.987-149.333,149.333c0,40.789,16.384,78.891,44.928,106.667    H74.667c-29.397,0-53.333-23.936-53.333-53.333V74.667c0-29.397,23.936-53.333,53.333-53.333H416    c29.397,0,53.333,23.936,53.333,53.333V258.261z" data-original="#000000" class="active-path" data-old_color="#000000" fill="#407CA1"/>
	</g>
</g><g>
	<g>
		<path d="M362.667,213.333c-82.347,0-149.333,66.987-149.333,149.333S280.32,512,362.667,512S512,445.013,512,362.667    S445.013,213.333,362.667,213.333z M362.667,490.667c-70.592,0-128-57.408-128-128s57.408-128,128-128s128,57.408,128,128    S433.259,490.667,362.667,490.667z" data-original="#000000" class="active-path" data-old_color="#000000" fill="#407CA1"/>
	</g>
</g><g>
	<g>
		<path d="M202.667,128h-128C68.779,128,64,132.779,64,138.667s4.779,10.667,10.667,10.667h128c5.888,0,10.667-4.779,10.667-10.667    S208.555,128,202.667,128z" data-original="#000000" class="active-path" data-old_color="#000000" fill="#407CA1"/>
	</g>
</g><g>
	<g>
		<path d="M138.667,64C132.779,64,128,68.779,128,74.667v128c0,5.888,4.779,10.667,10.667,10.667s10.667-4.779,10.667-10.667v-128    C149.333,68.779,144.555,64,138.667,64z" data-original="#000000" class="active-path" data-old_color="#000000" fill="#407CA1"/>
	</g>
</g><g>
	<g>
		<path d="M416,128H309.333c-5.888,0-10.667,4.779-10.667,10.667s4.779,10.667,10.667,10.667H416    c5.888,0,10.667-4.779,10.667-10.667S421.888,128,416,128z" data-original="#000000" class="active-path" data-old_color="#000000" fill="#407CA1"/>
	</g>
</g><g>
	<g>
		<path d="M188.864,408.469L82.197,301.803c-4.16-4.16-10.923-4.16-15.083,0c-4.16,4.16-4.16,10.923,0,15.083l106.667,106.667    c2.091,2.069,4.821,3.115,7.552,3.115c2.731,0,5.461-1.045,7.531-3.115C193.024,419.392,193.024,412.629,188.864,408.469z" data-original="#000000" class="active-path" data-old_color="#000000" fill="#407CA1"/>
	</g>
</g><g>
	<g>
		<path d="M188.864,301.803c-4.16-4.16-10.923-4.16-15.083,0L67.115,408.469c-4.16,4.16-4.16,10.923,0,15.083    c2.091,2.069,4.821,3.115,7.552,3.115c2.731,0,5.461-1.045,7.531-3.115l106.667-106.667    C193.024,312.725,193.024,305.963,188.864,301.803z" data-original="#000000" class="active-path" data-old_color="#000000" fill="#407CA1"/>
	</g>
</g><g>
	<g>
		<path d="M416,320H309.333c-5.888,0-10.667,4.779-10.667,10.667s4.779,10.667,10.667,10.667H416    c5.888,0,10.667-4.779,10.667-10.667S421.888,320,416,320z" data-original="#000000" class="active-path" data-old_color="#000000" fill="#407CA1"/>
	</g>
</g><g>
	<g>
		<path d="M416,384H309.333c-5.888,0-10.667,4.779-10.667,10.667s4.779,10.667,10.667,10.667H416    c5.888,0,10.667-4.779,10.667-10.667S421.888,384,416,384z" data-original="#000000" class="active-path" data-old_color="#000000" fill="#407CA1"/>
	</g>
</g></g> </svg>
