<?xml version="1.0"?>
<svg xmlns="http://www.w3.org/2000/svg" xmlns:xlink="http://www.w3.org/1999/xlink" version="1.1" id="Layer_1" x="0px" y="0px" viewBox="0 0 490.667 490.667" style="enable-background:new 0 0 490.667 490.667;" xml:space="preserve" width="512px" height="512px"><g><g>
	<g>
		<path d="M117.333,42.667C87.936,42.667,64,66.603,64,96s23.936,53.333,53.333,53.333S170.667,125.397,170.667,96    S146.731,42.667,117.333,42.667z M117.333,128c-17.643,0-32-14.357-32-32c0-17.643,14.357-32,32-32c17.643,0,32,14.357,32,32    C149.333,113.643,134.976,128,117.333,128z" data-original="#000000" class="active-path" data-old_color="#000000" fill="#407CA1"/>
	</g>
</g><g>
	<g>
		<path d="M53.333,192C23.936,192,0,215.936,0,245.333s23.936,53.333,53.333,53.333s53.333-23.936,53.333-53.333    S82.731,192,53.333,192z M53.333,277.333c-17.643,0-32-14.357-32-32s14.357-32,32-32s32,14.357,32,32    S70.976,277.333,53.333,277.333z" data-original="#000000" class="active-path" data-old_color="#000000" fill="#407CA1"/>
	</g>
</g><g>
	<g>
		<path d="M117.333,341.333C87.936,341.333,64,365.269,64,394.667S87.936,448,117.333,448s53.333-23.936,53.333-53.333    S146.731,341.333,117.333,341.333z M117.333,426.667c-17.643,0-32-14.357-32-32c0-17.643,14.357-32,32-32    c17.643,0,32,14.357,32,32C149.333,412.309,134.976,426.667,117.333,426.667z" data-original="#000000" class="active-path" data-old_color="#000000" fill="#407CA1"/>
	</g>
</g><g>
	<g>
		<path d="M373.333,341.333c-29.397,0-53.333,23.936-53.333,53.333S343.936,448,373.333,448s53.333-23.936,53.333-53.333    S402.731,341.333,373.333,341.333z M373.333,426.667c-17.643,0-32-14.357-32-32c0-17.643,14.357-32,32-32    c17.643,0,32,14.357,32,32C405.333,412.309,390.976,426.667,373.333,426.667z" data-original="#000000" class="active-path" data-old_color="#000000" fill="#407CA1"/>
	</g>
</g><g>
	<g>
		<path d="M437.333,192C407.936,192,384,215.936,384,245.333s23.936,53.333,53.333,53.333s53.333-23.936,53.333-53.333    S466.731,192,437.333,192z M437.333,277.333c-17.643,0-32-14.357-32-32s14.357-32,32-32c17.643,0,32,14.357,32,32    S454.976,277.333,437.333,277.333z" data-original="#000000" class="active-path" data-old_color="#000000" fill="#407CA1"/>
	</g>
</g><g>
	<g>
		<path d="M373.333,42.667C343.936,42.667,320,66.603,320,96s23.936,53.333,53.333,53.333S426.667,125.397,426.667,96    S402.731,42.667,373.333,42.667z M373.333,128c-17.643,0-32-14.357-32-32c0-17.643,14.357-32,32-32c17.643,0,32,14.357,32,32    C405.333,113.643,390.976,128,373.333,128z" data-original="#000000" class="active-path" data-old_color="#000000" fill="#407CA1"/>
	</g>
</g><g>
	<g>
		<path d="M178.197,141.803l-21.333-21.333c-4.16-4.16-10.923-4.16-15.083,0c-4.16,4.16-4.16,10.923,0,15.083l21.333,21.333    c2.091,2.069,4.821,3.115,7.552,3.115c2.731,0,5.461-1.045,7.531-3.115C182.357,152.725,182.357,145.963,178.197,141.803z" data-original="#000000" class="active-path" data-old_color="#000000" fill="#407CA1"/>
	</g>
</g><g>
	<g>
		<path d="M138.667,234.667H96c-5.888,0-10.667,4.779-10.667,10.667S90.112,256,96,256h42.667c5.888,0,10.667-4.779,10.667-10.667    S144.555,234.667,138.667,234.667z" data-original="#000000" class="active-path" data-old_color="#000000" fill="#407CA1"/>
	</g>
</g><g>
	<g>
		<path d="M178.197,333.803c-4.16-4.16-10.923-4.16-15.083,0l-21.333,21.333c-4.16,4.16-4.16,10.923,0,15.083    c2.091,2.069,4.821,3.115,7.552,3.115s5.461-1.045,7.531-3.115l21.333-21.333C182.357,344.725,182.357,337.963,178.197,333.803z" data-original="#000000" class="active-path" data-old_color="#000000" fill="#407CA1"/>
	</g>
</g><g>
	<g>
		<path d="M348.864,355.136l-21.333-21.333c-4.16-4.16-10.923-4.16-15.083,0c-4.16,4.16-4.16,10.923,0,15.083l21.333,21.333    c2.091,2.069,4.821,3.115,7.552,3.115c2.731,0,5.461-1.045,7.531-3.115C353.024,366.059,353.024,359.296,348.864,355.136z" data-original="#000000" class="active-path" data-old_color="#000000" fill="#407CA1"/>
	</g>
</g><g>
	<g>
		<path d="M394.667,234.667H352c-5.888,0-10.667,4.779-10.667,10.667S346.112,256,352,256h42.667    c5.888,0,10.667-4.779,10.667-10.667S400.555,234.667,394.667,234.667z" data-original="#000000" class="active-path" data-old_color="#000000" fill="#407CA1"/>
	</g>
</g><g>
	<g>
		<path d="M348.864,120.469c-4.16-4.16-10.923-4.16-15.083,0l-21.333,21.333c-4.16,4.16-4.16,10.923,0,15.083    c2.091,2.069,4.821,3.115,7.552,3.115c2.731,0,5.461-1.045,7.531-3.115l21.333-21.333    C353.024,131.392,353.024,124.629,348.864,120.469z" data-original="#000000" class="active-path" data-old_color="#000000" fill="#407CA1"/>
	</g>
</g><g>
	<g>
		<path d="M247.552,234.901l-2.347-0.448c-21.717-4.011-31.851-10.709-31.851-21.12c0-11.563,14.656-21.333,32.021-21.333    c16.704,0,31.061,9.067,32,20.181c0.491,5.867,5.781,10.304,11.52,9.728c5.867-0.491,10.219-5.653,9.728-11.52    c-1.92-22.656-24.811-39.723-53.269-39.723c-29.419,0-53.355,19.136-53.355,42.667c0,21.909,16.576,36.075,51.2,42.453    l2.304,0.427c21.696,4.011,31.808,10.709,31.808,21.12c0,11.563-14.656,21.333-32.021,21.333c-16.704,0-31.061-9.045-32-20.181    c-0.491-5.867-5.632-10.261-11.52-9.728c-5.867,0.491-10.219,5.653-9.728,11.52C193.941,302.912,216.853,320,245.312,320    c29.419,0,53.355-19.136,53.376-42.645C298.688,255.424,282.112,241.28,247.552,234.901z" data-original="#000000" class="active-path" data-old_color="#000000" fill="#407CA1"/>
	</g>
</g><g>
	<g>
		<path d="M245.333,149.333c-5.888,0-10.667,4.779-10.667,10.667v170.667c0,5.888,4.779,10.667,10.667,10.667    S256,336.555,256,330.667V160C256,154.112,251.221,149.333,245.333,149.333z" data-original="#000000" class="active-path" data-old_color="#000000" fill="#407CA1"/>
	</g>
</g></g> </svg>
