<?xml version="1.0"?>
<svg xmlns="http://www.w3.org/2000/svg" xmlns:xlink="http://www.w3.org/1999/xlink" version="1.1" id="Layer_1" x="0px" y="0px" viewBox="0 0 512.005 512.005" style="enable-background:new 0 0 512.005 512.005;" xml:space="preserve" width="512px" height="512px"><g><g>
	<g>
		<path d="M448.003,64.005c-57.003,0-139.52-15.957-184.469-60.885c-4.16-4.16-10.923-4.16-15.083,0    C203.523,48.048,121.005,64.005,64.003,64.005c-5.888,0-10.667,4.779-10.667,10.667v213.333    c0,80.107,114.155,195.669,199.36,223.467c1.088,0.363,2.197,0.533,3.307,0.533s2.219-0.171,3.307-0.533    c85.205-27.797,199.36-143.36,199.36-223.467V74.672C458.669,68.784,453.891,64.005,448.003,64.005z M437.336,288.005    c0,63.275-99.115,173.205-181.333,202.069C173.784,461.211,74.669,351.28,74.669,288.005V85.168    c57.259-1.835,133.739-18.368,181.333-59.904C303.597,66.8,380.077,83.355,437.336,85.168V288.005z" data-original="#000000" class="active-path" data-old_color="#000000" fill="#407CA1"/>
	</g>
</g><g>
	<g>
		<path d="M406.488,106.736c-50.261-5.355-104.299-24.64-144.533-51.584c-3.605-2.389-8.277-2.389-11.883,0    c-40.235,26.944-94.272,46.229-144.533,51.584c-5.419,0.576-9.536,5.141-9.536,10.603v170.667    c0,51.456,84.416,149.269,155.733,180.437c1.365,0.597,2.816,0.896,4.267,0.896s2.901-0.299,4.267-0.896    c71.317-31.168,155.733-128.981,155.733-180.437V117.339C416.003,111.877,411.885,107.312,406.488,106.736z M394.669,288.005    c0,38.037-73.408,127.957-138.667,158.955c-65.259-30.997-138.667-120.939-138.667-158.955V126.789    c48.875-6.677,98.56-24.597,138.667-50.048c40.107,25.451,89.792,43.371,138.667,50.048V288.005z" data-original="#000000" class="active-path" data-old_color="#000000" fill="#407CA1"/>
	</g>
</g><g>
	<g>
		<path d="M260.909,235.355l-6.293-1.067c-12.864-2.091-51.968-8.491-51.968-31.616c0-17.344,24.448-32,53.376-32    c27.819,0,51.733,13.589,53.312,30.293c0.555,5.845,5.611,10.283,11.627,9.6c5.867-0.555,10.155-5.76,9.6-11.627    c-2.667-28.267-34.731-49.6-74.56-49.6c-41.877,0-74.709,23.424-74.709,53.333c0,41.259,52.565,49.856,69.845,52.672l6.293,1.067    c12.821,2.091,51.861,8.469,51.861,31.595c0,17.344-24.448,32-53.376,32c-27.819,0-51.733-13.589-53.333-30.293    c-0.555-5.845-5.76-10.304-11.627-9.6c-5.867,0.555-10.155,5.76-9.6,11.627c2.667,28.267,34.731,49.6,74.56,49.6    c41.899,0,74.731-23.424,74.752-53.312C330.669,246.768,278.168,238.171,260.909,235.355z" data-original="#000000" class="active-path" data-old_color="#000000" fill="#407CA1"/>
	</g>
</g><g>
	<g>
		<path d="M255.981,128.005c-5.888,0-10.667,4.779-10.667,10.667v213.333c0,5.888,4.779,10.667,10.667,10.667    s10.667-4.779,10.667-10.667V138.672C266.648,132.784,261.869,128.005,255.981,128.005z" data-original="#000000" class="active-path" data-old_color="#000000" fill="#407CA1"/>
	</g>
</g></g> </svg>
